<svg xmlns="http://www.w3.org/2000/svg" viewBox="0 0 400 400"><defs><style>.cls-1{fill:#f1f1f1;}</style></defs><g id="Calque_5" data-name="Calque 5"><g id="v1"><g id="N"><circle class="cls-1" cx="271.53" cy="189.96" r="12.99"/><circle class="cls-1" cx="271.54" cy="249.63" r="10.62"/><circle class="cls-1" cx="227.81" cy="190.19" r="10.62"/><ellipse class="cls-1" cx="227.83" cy="249.61" rx="10.62" ry="10.45"/><rect class="cls-1" x="217.2" y="191.02" width="21.23" height="58.71" transform="translate(455.63 440.75) rotate(-180)"/><rect class="cls-1" x="239.29" y="183.61" width="21.23" height="73.28" transform="translate(-81.93 191.11) rotate(-36.37)"/></g><g id="L"><rect class="cls-1" x="48.89" y="131.08" width="25.99" height="118.5" transform="translate(57.77 -9.77) rotate(16.83)"/><ellipse class="cls-1" cx="44.92" cy="246.22" rx="12.99" ry="13.27"/><ellipse class="cls-1" cx="78.7" cy="134.73" rx="12.99" ry="13.27"/></g><g id="O"><path class="cls-1" d="M114.45,238h0C104.24,238,96,229.52,96,219s8.26-19,18.45-19h0V178.91h0a40.24,40.24,0,0,0,0,80.47h0Z"/><path class="cls-1" d="M171.24,238.13h0c10.18,0,18.44-8.5,18.44-19s-8.26-19-18.44-19h0V179h0a40.24,40.24,0,1,1,0,80.47h0Z"/><polygon class="cls-1" points="114.44 178.91 171.25 179.02 171.25 200.14 114.44 200.03 114.44 178.91"/><polygon class="cls-1" points="114.44 238.02 171.25 238.13 171.25 259.49 114.44 259.38 114.44 238.02"/></g><g id="E"><g id="E-2" data-name="E"><path class="cls-1" d="M322.07,239.67a11.72,11.72,0,0,0,2.3.46c.76.07,1.53.11,2.29.11a19.49,19.49,0,0,0,5.52-.79,20.18,20.18,0,0,0,5-2.24c1.55-1,5.79-6.15,7-7.55s-.54,1.56.22-.15l15.81,11.54a37.45,37.45,0,0,1-7.84,9.17,39.54,39.54,0,0,1-7.67,5.2,38.43,38.43,0,0,1-8.68,3.25,40,40,0,0,1-9.36,1.1,39.11,39.11,0,0,1-15.24-3,38.72,38.72,0,0,1-12.48-8.34,39.11,39.11,0,0,1-8.42-12.73,41.6,41.6,0,0,1-3.09-16.22A42.93,42.93,0,0,1,290.52,203a38,38,0,0,1,8.42-12.77,38.34,38.34,0,0,1,12.48-8.2,40,40,0,0,1,15.24-2.92,38.89,38.89,0,0,1,9.4,1.14,39.43,39.43,0,0,1,16.42,8.52l.07.06a9.52,9.52,0,0,1,.92,13.26Zm10-40.15a11.67,11.67,0,0,0-2.69-.64,27.11,27.11,0,0,0-2.76-.14,19.69,19.69,0,0,0-7.56,1.46,18.1,18.1,0,0,0-6.17,4.17,19.67,19.67,0,0,0-4.13,6.53,23.28,23.28,0,0,0-1.5,8.59c0,.71,0,1.52.11,2.42s.19,1.82.35,2.75.37,1.81.61,2.67a9.46,9.46,0,0,0,.94,2.28Z"/></g><ellipse class="cls-1" cx="352.55" cy="234.92" rx="9.72" ry="9.92"/></g></g></g></svg>